<svg xmlns="http://www.w3.org/2000/svg" viewBox="0 0 32 32"><g id="globe"><path d="M16,2A14,14,0,1,0,30,16,14,14,0,0,0,16,2ZM27.84,14.11s-.05,0-.07,0A19.62,19.62,0,0,1,24,15.79,19.27,19.27,0,0,0,21.12,5.16,12,12,0,0,1,27.84,14.11ZM10,16c0-5.82,2.2-10.83,5-11.81V17a26,26,0,0,1-5-.64C10,16.22,10,16.11,10,16Zm5,3v8.84c-2.4-.85-4.37-4.65-4.87-9.41A28.57,28.57,0,0,0,15,19Zm2,8.84V19a28.57,28.57,0,0,0,4.87-.57C21.37,23.16,19.4,27,17,27.81ZM17,17V4.19c2.8,1,5,6,5,11.81,0,.11,0,.22,0,.33A26,26,0,0,1,17,17ZM10.88,5.16A19.27,19.27,0,0,0,8,15.79a19.62,19.62,0,0,1-3.78-1.65s0,0-.07,0A12,12,0,0,1,10.88,5.16ZM4,16.28a22.26,22.26,0,0,0,4.07,1.61,18.36,18.36,0,0,0,2.8,9A12,12,0,0,1,4,16.28ZM21.12,26.84a18.36,18.36,0,0,0,2.8-8.95A22.26,22.26,0,0,0,28,16.28,12,12,0,0,1,21.12,26.84Z" fill="#f26c4f"/></g></svg>